<mxfile host="app.diagrams.net" modified="2024-06-03T11:35:53.691Z" agent="Mozilla/5.0 (Windows NT 10.0; Win64; x64) AppleWebKit/537.36 (KHTML, like Gecko) Chrome/121.0.0.0 Safari/537.36" etag="GWhDauKt6LS0IW7c4kpZ" version="24.4.13" type="device">
  <diagram name="Página-1" id="F0WEpSo6jbkKOzIckJJC">
    <mxGraphModel dx="2788" dy="1117" grid="1" gridSize="10" guides="1" tooltips="1" connect="1" arrows="1" fold="1" page="1" pageScale="1" pageWidth="827" pageHeight="1169" math="0" shadow="0">
      <root>
        <mxCell id="0" />
        <mxCell id="1" parent="0" />
        <mxCell id="z6BWA8BLWcZFzd1xvX2E-1" value="" style="group" vertex="1" connectable="0" parent="1">
          <mxGeometry x="-440" y="100" width="320" height="560" as="geometry" />
        </mxCell>
        <mxCell id="z6BWA8BLWcZFzd1xvX2E-2" value="" style="rounded=1;whiteSpace=wrap;html=1;fillColor=#f5f5f5;gradientColor=#b3b3b3;strokeColor=#666666;" vertex="1" parent="z6BWA8BLWcZFzd1xvX2E-1">
          <mxGeometry width="320" height="560" as="geometry" />
        </mxCell>
        <mxCell id="z6BWA8BLWcZFzd1xvX2E-14" value="" style="group" vertex="1" connectable="0" parent="z6BWA8BLWcZFzd1xvX2E-1">
          <mxGeometry x="10.001951219512199" y="50.001290322580644" width="283.9785365853659" height="454.30134125636664" as="geometry" />
        </mxCell>
        <mxCell id="z6BWA8BLWcZFzd1xvX2E-3" value="&lt;font style=&quot;font-size: 18px;&quot;&gt;Despache&amp;nbsp; de Tecido&lt;/font&gt;" style="text;html=1;align=center;verticalAlign=middle;resizable=0;points=[];autosize=1;strokeColor=none;fillColor=none;" vertex="1" parent="z6BWA8BLWcZFzd1xvX2E-14">
          <mxGeometry x="44.881707317073165" width="190" height="40" as="geometry" />
        </mxCell>
        <mxCell id="z6BWA8BLWcZFzd1xvX2E-4" value="Localidade :" style="text;html=1;align=center;verticalAlign=middle;resizable=0;points=[];autosize=1;strokeColor=none;fillColor=none;" vertex="1" parent="z6BWA8BLWcZFzd1xvX2E-14">
          <mxGeometry y="120.96161290322578" width="90" height="30" as="geometry" />
        </mxCell>
        <mxCell id="z6BWA8BLWcZFzd1xvX2E-5" value="Quantidade :" style="text;html=1;align=center;verticalAlign=middle;resizable=0;points=[];autosize=1;strokeColor=none;fillColor=none;" vertex="1" parent="z6BWA8BLWcZFzd1xvX2E-14">
          <mxGeometry y="173.78709677419354" width="90" height="30" as="geometry" />
        </mxCell>
        <mxCell id="z6BWA8BLWcZFzd1xvX2E-6" value="Tecido :" style="text;html=1;align=center;verticalAlign=middle;resizable=0;points=[];autosize=1;strokeColor=none;fillColor=none;" vertex="1" parent="z6BWA8BLWcZFzd1xvX2E-14">
          <mxGeometry x="14.997317073170727" y="75.00129032258063" width="60" height="30" as="geometry" />
        </mxCell>
        <mxCell id="z6BWA8BLWcZFzd1xvX2E-9" value="&lt;span style=&quot;color: rgba(0, 0, 0, 0); font-family: monospace; font-size: 0px; text-align: start; text-wrap: nowrap;&quot;&gt;%3CmxGraphModel%3E%3Croot%3E%3CmxCell%20id%3D%220%22%2F%3E%3CmxCell%20id%3D%221%22%20parent%3D%220%22%2F%3E%3CmxCell%20id%3D%222%22%20value%3D%22%22%20style%3D%22group%22%20vertex%3D%221%22%20connectable%3D%220%22%20parent%3D%221%22%3E%3CmxGeometry%20x%3D%22-450%22%20y%3D%22100%22%20width%3D%22320%22%20height%3D%22560%22%20as%3D%22geometry%22%2F%3E%3C%2FmxCell%3E%3CmxCell%20id%3D%223%22%20value%3D%22%22%20style%3D%22rounded%3D1%3BwhiteSpace%3Dwrap%3Bhtml%3D1%3BfillColor%3D%23f5f5f5%3BgradientColor%3D%23b3b3b3%3BstrokeColor%3D%23666666%3B%22%20vertex%3D%221%22%20parent%3D%222%22%3E%3CmxGeometry%20width%3D%22320%22%20height%3D%22560%22%20as%3D%22geometry%22%2F%3E%3C%2FmxCell%3E%3CmxCell%20id%3D%224%22%20value%3D%22Analisar%20melhor%20Pre%C3%A7o%20%3A%22%20style%3D%22text%3Bhtml%3D1%3Balign%3Dcenter%3BverticalAlign%3Dmiddle%3Bresizable%3D0%3Bpoints%3D%5B%5D%3Bautosize%3D1%3BstrokeColor%3Dnone%3BfillColor%3Dnone%3B%22%20vertex%3D%221%22%20parent%3D%222%22%3E%3CmxGeometry%20x%3D%22-0.002682926829267629%22%20y%3D%22275.721935483871%22%20width%3D%22150%22%20height%3D%2230%22%20as%3D%22geometry%22%2F%3E%3C%2FmxCell%3E%3CmxCell%20id%3D%225%22%20value%3D%22%22%20style%3D%22group%22%20vertex%3D%221%22%20connectable%3D%220%22%20parent%3D%222%22%3E%3CmxGeometry%20x%3D%2220.121951219512198%22%20y%3D%2250.001290322580644%22%20width%3D%22283.9785365853659%22%20height%3D%22454.30134125636664%22%20as%3D%22geometry%22%2F%3E%3C%2FmxCell%3E%3CmxCell%20id%3D%226%22%20value%3D%22%26lt%3Bfont%20style%3D%26quot%3Bfont-size%3A%2018px%3B%26quot%3B%26gt%3BDespache%26amp%3Bnbsp%3B%20de%20Tecido%26lt%3B%2Ffont%26gt%3B%22%20style%3D%22text%3Bhtml%3D1%3Balign%3Dcenter%3BverticalAlign%3Dmiddle%3Bresizable%3D0%3Bpoints%3D%5B%5D%3Bautosize%3D1%3BstrokeColor%3Dnone%3BfillColor%3Dnone%3B%22%20vertex%3D%221%22%20parent%3D%225%22%3E%3CmxGeometry%20x%3D%2244.881707317073165%22%20width%3D%22190%22%20height%3D%2240%22%20as%3D%22geometry%22%2F%3E%3C%2FmxCell%3E%3CmxCell%20id%3D%227%22%20value%3D%22Localidade%20%3A%22%20style%3D%22text%3Bhtml%3D1%3Balign%3Dcenter%3BverticalAlign%3Dmiddle%3Bresizable%3D0%3Bpoints%3D%5B%5D%3Bautosize%3D1%3BstrokeColor%3Dnone%3BfillColor%3Dnone%3B%22%20vertex%3D%221%22%20parent%3D%225%22%3E%3CmxGeometry%20y%3D%22120.96161290322578%22%20width%3D%2290%22%20height%3D%2230%22%20as%3D%22geometry%22%2F%3E%3C%2FmxCell%3E%3CmxCell%20id%3D%228%22%20value%3D%22Quantidade%20%3A%22%20style%3D%22text%3Bhtml%3D1%3Balign%3Dcenter%3BverticalAlign%3Dmiddle%3Bresizable%3D0%3Bpoints%3D%5B%5D%3Bautosize%3D1%3BstrokeColor%3Dnone%3BfillColor%3Dnone%3B%22%20vertex%3D%221%22%20parent%3D%225%22%3E%3CmxGeometry%20y%3D%22173.78709677419354%22%20width%3D%2290%22%20height%3D%2230%22%20as%3D%22geometry%22%2F%3E%3C%2FmxCell%3E%3CmxCell%20id%3D%229%22%20value%3D%22Tecido%20%3A%22%20style%3D%22text%3Bhtml%3D1%3Balign%3Dcenter%3BverticalAlign%3Dmiddle%3Bresizable%3D0%3Bpoints%3D%5B%5D%3Bautosize%3D1%3BstrokeColor%3Dnone%3BfillColor%3Dnone%3B%22%20vertex%3D%221%22%20parent%3D%225%22%3E%3CmxGeometry%20x%3D%2214.997317073170727%22%20y%3D%2275.00129032258063%22%20width%3D%2260%22%20height%3D%2230%22%20as%3D%22geometry%22%2F%3E%3C%2FmxCell%3E%3CmxCell%20id%3D%2210%22%20value%3D%22Fazer%20Compra%22%20style%3D%22rounded%3D1%3BwhiteSpace%3Dwrap%3Bhtml%3D1%3Bshadow%3D1%3BfillColor%3D%23eeeeee%3BstrokeColor%3D%2336393d%3Bsketch%3D1%3BcurveFitting%3D1%3Bjiggle%3D2%3B%22%20vertex%3D%221%22%20parent%3D%225%22%3E%3CmxGeometry%20x%3D%2286.4580487804878%22%20y%3D%22349.99870967741936%22%20width%3D%22106.83%22%20height%3D%2240%22%20as%3D%22geometry%22%2F%3E%3C%2FmxCell%3E%3CmxCell%20id%3D%2211%22%20value%3D%22%22%20style%3D%22rounded%3D1%3BwhiteSpace%3Dwrap%3Bhtml%3D1%3Bshadow%3D1%3B%22%20vertex%3D%221%22%20parent%3D%225%22%3E%3CmxGeometry%20x%3D%22127.8709756097561%22%20y%3D%2278.1483870967742%22%20width%3D%22156.09756097560975%22%20height%3D%2223.709677419354836%22%20as%3D%22geometry%22%2F%3E%3C%2FmxCell%3E%3CmxCell%20id%3D%2212%22%20value%3D%22%22%20style%3D%22rounded%3D1%3BwhiteSpace%3Dwrap%3Bhtml%3D1%3Bshadow%3D1%3B%22%20vertex%3D%221%22%20parent%3D%225%22%3E%3CmxGeometry%20x%3D%22127.8709756097561%22%20y%3D%22127.25677419354838%22%20width%3D%22156.09756097560975%22%20height%3D%2223.709677419354836%22%20as%3D%22geometry%22%2F%3E%3C%2FmxCell%3E%3CmxCell%20id%3D%2213%22%20value%3D%22%22%20style%3D%22rounded%3D1%3BwhiteSpace%3Dwrap%3Bhtml%3D1%3Bshadow%3D1%3B%22%20vertex%3D%221%22%20parent%3D%225%22%3E%3CmxGeometry%20x%3D%22127.88097560975609%22%20y%3D%22176.9341935483871%22%20width%3D%22156.09756097560975%22%20height%3D%2223.709677419354836%22%20as%3D%22geometry%22%2F%3E%3C%2FmxCell%3E%3CmxCell%20id%3D%2214%22%20value%3D%22%22%20style%3D%22rounded%3D1%3BwhiteSpace%3Dwrap%3Bhtml%3D1%3Bshadow%3D1%3B%22%20vertex%3D%221%22%20parent%3D%225%22%3E%3CmxGeometry%20x%3D%22127.88097560975609%22%20y%3D%22228.86967741935484%22%20width%3D%22156.09756097560975%22%20height%3D%2223.709677419354836%22%20as%3D%22geometry%22%2F%3E%3C%2FmxCell%3E%3CmxCell%20id%3D%2215%22%20value%3D%22Voltar%22%20style%3D%22rounded%3D1%3BwhiteSpace%3Dwrap%3Bhtml%3D1%3BfillColor%3D%23B0B0B0%3Bcontainer%3D0%3B%22%20vertex%3D%221%22%20parent%3D%225%22%3E%3CmxGeometry%20x%3D%2273.99569583931134%22%20y%3D%22415.0030956423316%22%20width%3D%22131.76470588235293%22%20height%3D%2239.29824561403508%22%20as%3D%22geometry%22%2F%3E%3C%2FmxCell%3E%3C%2Froot%3E%3C%2FmxGraphModel%3E&lt;/span&gt;" style="rounded=1;whiteSpace=wrap;html=1;shadow=1;" vertex="1" parent="z6BWA8BLWcZFzd1xvX2E-14">
          <mxGeometry x="127.8709756097561" y="78.1483870967742" width="156.09756097560975" height="23.709677419354836" as="geometry" />
        </mxCell>
        <mxCell id="z6BWA8BLWcZFzd1xvX2E-10" value="" style="rounded=1;whiteSpace=wrap;html=1;shadow=1;" vertex="1" parent="z6BWA8BLWcZFzd1xvX2E-14">
          <mxGeometry x="127.8709756097561" y="127.25677419354838" width="156.09756097560975" height="23.709677419354836" as="geometry" />
        </mxCell>
        <mxCell id="z6BWA8BLWcZFzd1xvX2E-11" value="" style="rounded=1;whiteSpace=wrap;html=1;shadow=1;" vertex="1" parent="z6BWA8BLWcZFzd1xvX2E-14">
          <mxGeometry x="127.88097560975609" y="176.9341935483871" width="156.09756097560975" height="23.709677419354836" as="geometry" />
        </mxCell>
        <mxCell id="z6BWA8BLWcZFzd1xvX2E-12" value="" style="rounded=1;whiteSpace=wrap;html=1;shadow=1;" vertex="1" parent="z6BWA8BLWcZFzd1xvX2E-14">
          <mxGeometry x="127.88097560975609" y="228.86967741935484" width="156.09756097560975" height="23.709677419354836" as="geometry" />
        </mxCell>
        <mxCell id="z6BWA8BLWcZFzd1xvX2E-13" value="Voltar" style="rounded=1;whiteSpace=wrap;html=1;fillColor=#B0B0B0;container=0;" vertex="1" parent="z6BWA8BLWcZFzd1xvX2E-14">
          <mxGeometry x="73.99569583931134" y="415.0030956423316" width="131.76470588235293" height="39.29824561403508" as="geometry" />
        </mxCell>
        <mxCell id="z6BWA8BLWcZFzd1xvX2E-8" value="Analisar Preço :" style="text;html=1;align=center;verticalAlign=middle;resizable=0;points=[];autosize=1;strokeColor=none;fillColor=none;" vertex="1" parent="z6BWA8BLWcZFzd1xvX2E-14">
          <mxGeometry x="-0.0046341463414592" y="225.72064516129035" width="110" height="30" as="geometry" />
        </mxCell>
        <mxCell id="z6BWA8BLWcZFzd1xvX2E-7" value="Fazer Compra" style="rounded=1;whiteSpace=wrap;html=1;shadow=1;fillColor=#B0B0B0;strokeColor=#36393d;" vertex="1" parent="z6BWA8BLWcZFzd1xvX2E-1">
          <mxGeometry x="90.22195121951219" y="400.00129032258064" width="123.54" height="40" as="geometry" />
        </mxCell>
        <mxCell id="z6BWA8BLWcZFzd1xvX2E-15" value="" style="rounded=1;whiteSpace=wrap;html=1;fillColor=#f5f5f5;gradientColor=#b3b3b3;strokeColor=#666666;" vertex="1" parent="1">
          <mxGeometry x="-10" y="220" width="560" height="320" as="geometry" />
        </mxCell>
        <mxCell id="z6BWA8BLWcZFzd1xvX2E-16" value="&lt;font style=&quot;font-size: 18px;&quot;&gt;Despache&amp;nbsp; de Tecido&lt;/font&gt;" style="text;html=1;align=center;verticalAlign=middle;resizable=0;points=[];autosize=1;strokeColor=none;fillColor=none;" vertex="1" parent="1">
          <mxGeometry x="175.00365853658536" y="260.00129032258064" width="190" height="40" as="geometry" />
        </mxCell>
        <mxCell id="z6BWA8BLWcZFzd1xvX2E-17" value="Tecido :" style="text;html=1;align=center;verticalAlign=middle;resizable=0;points=[];autosize=1;strokeColor=none;fillColor=none;" vertex="1" parent="1">
          <mxGeometry x="9.999268292682927" y="335.0025806451613" width="60" height="30" as="geometry" />
        </mxCell>
        <mxCell id="z6BWA8BLWcZFzd1xvX2E-18" value="&lt;span style=&quot;color: rgba(0, 0, 0, 0); font-family: monospace; font-size: 0px; text-align: start; text-wrap: nowrap;&quot;&gt;%3CmxGraphModel%3E%3Croot%3E%3CmxCell%20id%3D%220%22%2F%3E%3CmxCell%20id%3D%221%22%20parent%3D%220%22%2F%3E%3CmxCell%20id%3D%222%22%20value%3D%22%22%20style%3D%22group%22%20vertex%3D%221%22%20connectable%3D%220%22%20parent%3D%221%22%3E%3CmxGeometry%20x%3D%22-450%22%20y%3D%22100%22%20width%3D%22320%22%20height%3D%22560%22%20as%3D%22geometry%22%2F%3E%3C%2FmxCell%3E%3CmxCell%20id%3D%223%22%20value%3D%22%22%20style%3D%22rounded%3D1%3BwhiteSpace%3Dwrap%3Bhtml%3D1%3BfillColor%3D%23f5f5f5%3BgradientColor%3D%23b3b3b3%3BstrokeColor%3D%23666666%3B%22%20vertex%3D%221%22%20parent%3D%222%22%3E%3CmxGeometry%20width%3D%22320%22%20height%3D%22560%22%20as%3D%22geometry%22%2F%3E%3C%2FmxCell%3E%3CmxCell%20id%3D%224%22%20value%3D%22Analisar%20melhor%20Pre%C3%A7o%20%3A%22%20style%3D%22text%3Bhtml%3D1%3Balign%3Dcenter%3BverticalAlign%3Dmiddle%3Bresizable%3D0%3Bpoints%3D%5B%5D%3Bautosize%3D1%3BstrokeColor%3Dnone%3BfillColor%3Dnone%3B%22%20vertex%3D%221%22%20parent%3D%222%22%3E%3CmxGeometry%20x%3D%22-0.002682926829267629%22%20y%3D%22275.721935483871%22%20width%3D%22150%22%20height%3D%2230%22%20as%3D%22geometry%22%2F%3E%3C%2FmxCell%3E%3CmxCell%20id%3D%225%22%20value%3D%22%22%20style%3D%22group%22%20vertex%3D%221%22%20connectable%3D%220%22%20parent%3D%222%22%3E%3CmxGeometry%20x%3D%2220.121951219512198%22%20y%3D%2250.001290322580644%22%20width%3D%22283.9785365853659%22%20height%3D%22454.30134125636664%22%20as%3D%22geometry%22%2F%3E%3C%2FmxCell%3E%3CmxCell%20id%3D%226%22%20value%3D%22%26lt%3Bfont%20style%3D%26quot%3Bfont-size%3A%2018px%3B%26quot%3B%26gt%3BDespache%26amp%3Bnbsp%3B%20de%20Tecido%26lt%3B%2Ffont%26gt%3B%22%20style%3D%22text%3Bhtml%3D1%3Balign%3Dcenter%3BverticalAlign%3Dmiddle%3Bresizable%3D0%3Bpoints%3D%5B%5D%3Bautosize%3D1%3BstrokeColor%3Dnone%3BfillColor%3Dnone%3B%22%20vertex%3D%221%22%20parent%3D%225%22%3E%3CmxGeometry%20x%3D%2244.881707317073165%22%20width%3D%22190%22%20height%3D%2240%22%20as%3D%22geometry%22%2F%3E%3C%2FmxCell%3E%3CmxCell%20id%3D%227%22%20value%3D%22Localidade%20%3A%22%20style%3D%22text%3Bhtml%3D1%3Balign%3Dcenter%3BverticalAlign%3Dmiddle%3Bresizable%3D0%3Bpoints%3D%5B%5D%3Bautosize%3D1%3BstrokeColor%3Dnone%3BfillColor%3Dnone%3B%22%20vertex%3D%221%22%20parent%3D%225%22%3E%3CmxGeometry%20y%3D%22120.96161290322578%22%20width%3D%2290%22%20height%3D%2230%22%20as%3D%22geometry%22%2F%3E%3C%2FmxCell%3E%3CmxCell%20id%3D%228%22%20value%3D%22Quantidade%20%3A%22%20style%3D%22text%3Bhtml%3D1%3Balign%3Dcenter%3BverticalAlign%3Dmiddle%3Bresizable%3D0%3Bpoints%3D%5B%5D%3Bautosize%3D1%3BstrokeColor%3Dnone%3BfillColor%3Dnone%3B%22%20vertex%3D%221%22%20parent%3D%225%22%3E%3CmxGeometry%20y%3D%22173.78709677419354%22%20width%3D%2290%22%20height%3D%2230%22%20as%3D%22geometry%22%2F%3E%3C%2FmxCell%3E%3CmxCell%20id%3D%229%22%20value%3D%22Tecido%20%3A%22%20style%3D%22text%3Bhtml%3D1%3Balign%3Dcenter%3BverticalAlign%3Dmiddle%3Bresizable%3D0%3Bpoints%3D%5B%5D%3Bautosize%3D1%3BstrokeColor%3Dnone%3BfillColor%3Dnone%3B%22%20vertex%3D%221%22%20parent%3D%225%22%3E%3CmxGeometry%20x%3D%2214.997317073170727%22%20y%3D%2275.00129032258063%22%20width%3D%2260%22%20height%3D%2230%22%20as%3D%22geometry%22%2F%3E%3C%2FmxCell%3E%3CmxCell%20id%3D%2210%22%20value%3D%22Fazer%20Compra%22%20style%3D%22rounded%3D1%3BwhiteSpace%3Dwrap%3Bhtml%3D1%3Bshadow%3D1%3BfillColor%3D%23eeeeee%3BstrokeColor%3D%2336393d%3Bsketch%3D1%3BcurveFitting%3D1%3Bjiggle%3D2%3B%22%20vertex%3D%221%22%20parent%3D%225%22%3E%3CmxGeometry%20x%3D%2286.4580487804878%22%20y%3D%22349.99870967741936%22%20width%3D%22106.83%22%20height%3D%2240%22%20as%3D%22geometry%22%2F%3E%3C%2FmxCell%3E%3CmxCell%20id%3D%2211%22%20value%3D%22%22%20style%3D%22rounded%3D1%3BwhiteSpace%3Dwrap%3Bhtml%3D1%3Bshadow%3D1%3B%22%20vertex%3D%221%22%20parent%3D%225%22%3E%3CmxGeometry%20x%3D%22127.8709756097561%22%20y%3D%2278.1483870967742%22%20width%3D%22156.09756097560975%22%20height%3D%2223.709677419354836%22%20as%3D%22geometry%22%2F%3E%3C%2FmxCell%3E%3CmxCell%20id%3D%2212%22%20value%3D%22%22%20style%3D%22rounded%3D1%3BwhiteSpace%3Dwrap%3Bhtml%3D1%3Bshadow%3D1%3B%22%20vertex%3D%221%22%20parent%3D%225%22%3E%3CmxGeometry%20x%3D%22127.8709756097561%22%20y%3D%22127.25677419354838%22%20width%3D%22156.09756097560975%22%20height%3D%2223.709677419354836%22%20as%3D%22geometry%22%2F%3E%3C%2FmxCell%3E%3CmxCell%20id%3D%2213%22%20value%3D%22%22%20style%3D%22rounded%3D1%3BwhiteSpace%3Dwrap%3Bhtml%3D1%3Bshadow%3D1%3B%22%20vertex%3D%221%22%20parent%3D%225%22%3E%3CmxGeometry%20x%3D%22127.88097560975609%22%20y%3D%22176.9341935483871%22%20width%3D%22156.09756097560975%22%20height%3D%2223.709677419354836%22%20as%3D%22geometry%22%2F%3E%3C%2FmxCell%3E%3CmxCell%20id%3D%2214%22%20value%3D%22%22%20style%3D%22rounded%3D1%3BwhiteSpace%3Dwrap%3Bhtml%3D1%3Bshadow%3D1%3B%22%20vertex%3D%221%22%20parent%3D%225%22%3E%3CmxGeometry%20x%3D%22127.88097560975609%22%20y%3D%22228.86967741935484%22%20width%3D%22156.09756097560975%22%20height%3D%2223.709677419354836%22%20as%3D%22geometry%22%2F%3E%3C%2FmxCell%3E%3CmxCell%20id%3D%2215%22%20value%3D%22Voltar%22%20style%3D%22rounded%3D1%3BwhiteSpace%3Dwrap%3Bhtml%3D1%3BfillColor%3D%23B0B0B0%3Bcontainer%3D0%3B%22%20vertex%3D%221%22%20parent%3D%225%22%3E%3CmxGeometry%20x%3D%2273.99569583931134%22%20y%3D%22415.0030956423316%22%20width%3D%22131.76470588235293%22%20height%3D%2239.29824561403508%22%20as%3D%22geometry%22%2F%3E%3C%2FmxCell%3E%3C%2Froot%3E%3C%2FmxGraphModel%3E&lt;/span&gt;" style="rounded=1;whiteSpace=wrap;html=1;shadow=1;" vertex="1" parent="1">
          <mxGeometry x="85.00292682926829" y="338.1496774193549" width="156.09756097560975" height="23.709677419354836" as="geometry" />
        </mxCell>
        <mxCell id="z6BWA8BLWcZFzd1xvX2E-19" value="&lt;span style=&quot;color: rgba(0, 0, 0, 0); font-family: monospace; font-size: 0px; text-align: start; text-wrap: nowrap;&quot;&gt;%3CmxGraphModel%3E%3Croot%3E%3CmxCell%20id%3D%220%22%2F%3E%3CmxCell%20id%3D%221%22%20parent%3D%220%22%2F%3E%3CmxCell%20id%3D%222%22%20value%3D%22%22%20style%3D%22group%22%20vertex%3D%221%22%20connectable%3D%220%22%20parent%3D%221%22%3E%3CmxGeometry%20x%3D%22-450%22%20y%3D%22100%22%20width%3D%22320%22%20height%3D%22560%22%20as%3D%22geometry%22%2F%3E%3C%2FmxCell%3E%3CmxCell%20id%3D%223%22%20value%3D%22%22%20style%3D%22rounded%3D1%3BwhiteSpace%3Dwrap%3Bhtml%3D1%3BfillColor%3D%23f5f5f5%3BgradientColor%3D%23b3b3b3%3BstrokeColor%3D%23666666%3B%22%20vertex%3D%221%22%20parent%3D%222%22%3E%3CmxGeometry%20width%3D%22320%22%20height%3D%22560%22%20as%3D%22geometry%22%2F%3E%3C%2FmxCell%3E%3CmxCell%20id%3D%224%22%20value%3D%22Analisar%20melhor%20Pre%C3%A7o%20%3A%22%20style%3D%22text%3Bhtml%3D1%3Balign%3Dcenter%3BverticalAlign%3Dmiddle%3Bresizable%3D0%3Bpoints%3D%5B%5D%3Bautosize%3D1%3BstrokeColor%3Dnone%3BfillColor%3Dnone%3B%22%20vertex%3D%221%22%20parent%3D%222%22%3E%3CmxGeometry%20x%3D%22-0.002682926829267629%22%20y%3D%22275.721935483871%22%20width%3D%22150%22%20height%3D%2230%22%20as%3D%22geometry%22%2F%3E%3C%2FmxCell%3E%3CmxCell%20id%3D%225%22%20value%3D%22%22%20style%3D%22group%22%20vertex%3D%221%22%20connectable%3D%220%22%20parent%3D%222%22%3E%3CmxGeometry%20x%3D%2220.121951219512198%22%20y%3D%2250.001290322580644%22%20width%3D%22283.9785365853659%22%20height%3D%22454.30134125636664%22%20as%3D%22geometry%22%2F%3E%3C%2FmxCell%3E%3CmxCell%20id%3D%226%22%20value%3D%22%26lt%3Bfont%20style%3D%26quot%3Bfont-size%3A%2018px%3B%26quot%3B%26gt%3BDespache%26amp%3Bnbsp%3B%20de%20Tecido%26lt%3B%2Ffont%26gt%3B%22%20style%3D%22text%3Bhtml%3D1%3Balign%3Dcenter%3BverticalAlign%3Dmiddle%3Bresizable%3D0%3Bpoints%3D%5B%5D%3Bautosize%3D1%3BstrokeColor%3Dnone%3BfillColor%3Dnone%3B%22%20vertex%3D%221%22%20parent%3D%225%22%3E%3CmxGeometry%20x%3D%2244.881707317073165%22%20width%3D%22190%22%20height%3D%2240%22%20as%3D%22geometry%22%2F%3E%3C%2FmxCell%3E%3CmxCell%20id%3D%227%22%20value%3D%22Localidade%20%3A%22%20style%3D%22text%3Bhtml%3D1%3Balign%3Dcenter%3BverticalAlign%3Dmiddle%3Bresizable%3D0%3Bpoints%3D%5B%5D%3Bautosize%3D1%3BstrokeColor%3Dnone%3BfillColor%3Dnone%3B%22%20vertex%3D%221%22%20parent%3D%225%22%3E%3CmxGeometry%20y%3D%22120.96161290322578%22%20width%3D%2290%22%20height%3D%2230%22%20as%3D%22geometry%22%2F%3E%3C%2FmxCell%3E%3CmxCell%20id%3D%228%22%20value%3D%22Quantidade%20%3A%22%20style%3D%22text%3Bhtml%3D1%3Balign%3Dcenter%3BverticalAlign%3Dmiddle%3Bresizable%3D0%3Bpoints%3D%5B%5D%3Bautosize%3D1%3BstrokeColor%3Dnone%3BfillColor%3Dnone%3B%22%20vertex%3D%221%22%20parent%3D%225%22%3E%3CmxGeometry%20y%3D%22173.78709677419354%22%20width%3D%2290%22%20height%3D%2230%22%20as%3D%22geometry%22%2F%3E%3C%2FmxCell%3E%3CmxCell%20id%3D%229%22%20value%3D%22Tecido%20%3A%22%20style%3D%22text%3Bhtml%3D1%3Balign%3Dcenter%3BverticalAlign%3Dmiddle%3Bresizable%3D0%3Bpoints%3D%5B%5D%3Bautosize%3D1%3BstrokeColor%3Dnone%3BfillColor%3Dnone%3B%22%20vertex%3D%221%22%20parent%3D%225%22%3E%3CmxGeometry%20x%3D%2214.997317073170727%22%20y%3D%2275.00129032258063%22%20width%3D%2260%22%20height%3D%2230%22%20as%3D%22geometry%22%2F%3E%3C%2FmxCell%3E%3CmxCell%20id%3D%2210%22%20value%3D%22Fazer%20Compra%22%20style%3D%22rounded%3D1%3BwhiteSpace%3Dwrap%3Bhtml%3D1%3Bshadow%3D1%3BfillColor%3D%23eeeeee%3BstrokeColor%3D%2336393d%3Bsketch%3D1%3BcurveFitting%3D1%3Bjiggle%3D2%3B%22%20vertex%3D%221%22%20parent%3D%225%22%3E%3CmxGeometry%20x%3D%2286.4580487804878%22%20y%3D%22349.99870967741936%22%20width%3D%22106.83%22%20height%3D%2240%22%20as%3D%22geometry%22%2F%3E%3C%2FmxCell%3E%3CmxCell%20id%3D%2211%22%20value%3D%22%22%20style%3D%22rounded%3D1%3BwhiteSpace%3Dwrap%3Bhtml%3D1%3Bshadow%3D1%3B%22%20vertex%3D%221%22%20parent%3D%225%22%3E%3CmxGeometry%20x%3D%22127.8709756097561%22%20y%3D%2278.1483870967742%22%20width%3D%22156.09756097560975%22%20height%3D%2223.709677419354836%22%20as%3D%22geometry%22%2F%3E%3C%2FmxCell%3E%3CmxCell%20id%3D%2212%22%20value%3D%22%22%20style%3D%22rounded%3D1%3BwhiteSpace%3Dwrap%3Bhtml%3D1%3Bshadow%3D1%3B%22%20vertex%3D%221%22%20parent%3D%225%22%3E%3CmxGeometry%20x%3D%22127.8709756097561%22%20y%3D%22127.25677419354838%22%20width%3D%22156.09756097560975%22%20height%3D%2223.709677419354836%22%20as%3D%22geometry%22%2F%3E%3C%2FmxCell%3E%3CmxCell%20id%3D%2213%22%20value%3D%22%22%20style%3D%22rounded%3D1%3BwhiteSpace%3Dwrap%3Bhtml%3D1%3Bshadow%3D1%3B%22%20vertex%3D%221%22%20parent%3D%225%22%3E%3CmxGeometry%20x%3D%22127.88097560975609%22%20y%3D%22176.9341935483871%22%20width%3D%22156.09756097560975%22%20height%3D%2223.709677419354836%22%20as%3D%22geometry%22%2F%3E%3C%2FmxCell%3E%3CmxCell%20id%3D%2214%22%20value%3D%22%22%20style%3D%22rounded%3D1%3BwhiteSpace%3Dwrap%3Bhtml%3D1%3Bshadow%3D1%3B%22%20vertex%3D%221%22%20parent%3D%225%22%3E%3CmxGeometry%20x%3D%22127.88097560975609%22%20y%3D%22228.86967741935484%22%20width%3D%22156.09756097560975%22%20height%3D%2223.709677419354836%22%20as%3D%22geometry%22%2F%3E%3C%2FmxCell%3E%3CmxCell%20id%3D%2215%22%20value%3D%22Voltar%22%20style%3D%22rounded%3D1%3BwhiteSpace%3Dwrap%3Bhtml%3D1%3BfillColor%3D%23B0B0B0%3Bcontainer%3D0%3B%22%20vertex%3D%221%22%20parent%3D%225%22%3E%3CmxGeometry%20x%3D%2273.99569583931134%22%20y%3D%22415.0030956423316%22%20width%3D%22131.76470588235293%22%20height%3D%2239.29824561403508%22%20as%3D%22geometry%22%2F%3E%3C%2FmxCell%3E%3C%2Froot%3E%3C%2FmxGraphModel%3E&lt;/span&gt;" style="rounded=1;whiteSpace=wrap;html=1;shadow=1;" vertex="1" parent="1">
          <mxGeometry x="85.00292682926829" y="379.9996774193549" width="156.09756097560975" height="23.709677419354836" as="geometry" />
        </mxCell>
        <mxCell id="z6BWA8BLWcZFzd1xvX2E-20" value="&lt;span style=&quot;color: rgba(0, 0, 0, 0); font-family: monospace; font-size: 0px; text-align: start; text-wrap: nowrap;&quot;&gt;%3CmxGraphModel%3E%3Croot%3E%3CmxCell%20id%3D%220%22%2F%3E%3CmxCell%20id%3D%221%22%20parent%3D%220%22%2F%3E%3CmxCell%20id%3D%222%22%20value%3D%22%22%20style%3D%22group%22%20vertex%3D%221%22%20connectable%3D%220%22%20parent%3D%221%22%3E%3CmxGeometry%20x%3D%22-450%22%20y%3D%22100%22%20width%3D%22320%22%20height%3D%22560%22%20as%3D%22geometry%22%2F%3E%3C%2FmxCell%3E%3CmxCell%20id%3D%223%22%20value%3D%22%22%20style%3D%22rounded%3D1%3BwhiteSpace%3Dwrap%3Bhtml%3D1%3BfillColor%3D%23f5f5f5%3BgradientColor%3D%23b3b3b3%3BstrokeColor%3D%23666666%3B%22%20vertex%3D%221%22%20parent%3D%222%22%3E%3CmxGeometry%20width%3D%22320%22%20height%3D%22560%22%20as%3D%22geometry%22%2F%3E%3C%2FmxCell%3E%3CmxCell%20id%3D%224%22%20value%3D%22Analisar%20melhor%20Pre%C3%A7o%20%3A%22%20style%3D%22text%3Bhtml%3D1%3Balign%3Dcenter%3BverticalAlign%3Dmiddle%3Bresizable%3D0%3Bpoints%3D%5B%5D%3Bautosize%3D1%3BstrokeColor%3Dnone%3BfillColor%3Dnone%3B%22%20vertex%3D%221%22%20parent%3D%222%22%3E%3CmxGeometry%20x%3D%22-0.002682926829267629%22%20y%3D%22275.721935483871%22%20width%3D%22150%22%20height%3D%2230%22%20as%3D%22geometry%22%2F%3E%3C%2FmxCell%3E%3CmxCell%20id%3D%225%22%20value%3D%22%22%20style%3D%22group%22%20vertex%3D%221%22%20connectable%3D%220%22%20parent%3D%222%22%3E%3CmxGeometry%20x%3D%2220.121951219512198%22%20y%3D%2250.001290322580644%22%20width%3D%22283.9785365853659%22%20height%3D%22454.30134125636664%22%20as%3D%22geometry%22%2F%3E%3C%2FmxCell%3E%3CmxCell%20id%3D%226%22%20value%3D%22%26lt%3Bfont%20style%3D%26quot%3Bfont-size%3A%2018px%3B%26quot%3B%26gt%3BDespache%26amp%3Bnbsp%3B%20de%20Tecido%26lt%3B%2Ffont%26gt%3B%22%20style%3D%22text%3Bhtml%3D1%3Balign%3Dcenter%3BverticalAlign%3Dmiddle%3Bresizable%3D0%3Bpoints%3D%5B%5D%3Bautosize%3D1%3BstrokeColor%3Dnone%3BfillColor%3Dnone%3B%22%20vertex%3D%221%22%20parent%3D%225%22%3E%3CmxGeometry%20x%3D%2244.881707317073165%22%20width%3D%22190%22%20height%3D%2240%22%20as%3D%22geometry%22%2F%3E%3C%2FmxCell%3E%3CmxCell%20id%3D%227%22%20value%3D%22Localidade%20%3A%22%20style%3D%22text%3Bhtml%3D1%3Balign%3Dcenter%3BverticalAlign%3Dmiddle%3Bresizable%3D0%3Bpoints%3D%5B%5D%3Bautosize%3D1%3BstrokeColor%3Dnone%3BfillColor%3Dnone%3B%22%20vertex%3D%221%22%20parent%3D%225%22%3E%3CmxGeometry%20y%3D%22120.96161290322578%22%20width%3D%2290%22%20height%3D%2230%22%20as%3D%22geometry%22%2F%3E%3C%2FmxCell%3E%3CmxCell%20id%3D%228%22%20value%3D%22Quantidade%20%3A%22%20style%3D%22text%3Bhtml%3D1%3Balign%3Dcenter%3BverticalAlign%3Dmiddle%3Bresizable%3D0%3Bpoints%3D%5B%5D%3Bautosize%3D1%3BstrokeColor%3Dnone%3BfillColor%3Dnone%3B%22%20vertex%3D%221%22%20parent%3D%225%22%3E%3CmxGeometry%20y%3D%22173.78709677419354%22%20width%3D%2290%22%20height%3D%2230%22%20as%3D%22geometry%22%2F%3E%3C%2FmxCell%3E%3CmxCell%20id%3D%229%22%20value%3D%22Tecido%20%3A%22%20style%3D%22text%3Bhtml%3D1%3Balign%3Dcenter%3BverticalAlign%3Dmiddle%3Bresizable%3D0%3Bpoints%3D%5B%5D%3Bautosize%3D1%3BstrokeColor%3Dnone%3BfillColor%3Dnone%3B%22%20vertex%3D%221%22%20parent%3D%225%22%3E%3CmxGeometry%20x%3D%2214.997317073170727%22%20y%3D%2275.00129032258063%22%20width%3D%2260%22%20height%3D%2230%22%20as%3D%22geometry%22%2F%3E%3C%2FmxCell%3E%3CmxCell%20id%3D%2210%22%20value%3D%22Fazer%20Compra%22%20style%3D%22rounded%3D1%3BwhiteSpace%3Dwrap%3Bhtml%3D1%3Bshadow%3D1%3BfillColor%3D%23eeeeee%3BstrokeColor%3D%2336393d%3Bsketch%3D1%3BcurveFitting%3D1%3Bjiggle%3D2%3B%22%20vertex%3D%221%22%20parent%3D%225%22%3E%3CmxGeometry%20x%3D%2286.4580487804878%22%20y%3D%22349.99870967741936%22%20width%3D%22106.83%22%20height%3D%2240%22%20as%3D%22geometry%22%2F%3E%3C%2FmxCell%3E%3CmxCell%20id%3D%2211%22%20value%3D%22%22%20style%3D%22rounded%3D1%3BwhiteSpace%3Dwrap%3Bhtml%3D1%3Bshadow%3D1%3B%22%20vertex%3D%221%22%20parent%3D%225%22%3E%3CmxGeometry%20x%3D%22127.8709756097561%22%20y%3D%2278.1483870967742%22%20width%3D%22156.09756097560975%22%20height%3D%2223.709677419354836%22%20as%3D%22geometry%22%2F%3E%3C%2FmxCell%3E%3CmxCell%20id%3D%2212%22%20value%3D%22%22%20style%3D%22rounded%3D1%3BwhiteSpace%3Dwrap%3Bhtml%3D1%3Bshadow%3D1%3B%22%20vertex%3D%221%22%20parent%3D%225%22%3E%3CmxGeometry%20x%3D%22127.8709756097561%22%20y%3D%22127.25677419354838%22%20width%3D%22156.09756097560975%22%20height%3D%2223.709677419354836%22%20as%3D%22geometry%22%2F%3E%3C%2FmxCell%3E%3CmxCell%20id%3D%2213%22%20value%3D%22%22%20style%3D%22rounded%3D1%3BwhiteSpace%3Dwrap%3Bhtml%3D1%3Bshadow%3D1%3B%22%20vertex%3D%221%22%20parent%3D%225%22%3E%3CmxGeometry%20x%3D%22127.88097560975609%22%20y%3D%22176.9341935483871%22%20width%3D%22156.09756097560975%22%20height%3D%2223.709677419354836%22%20as%3D%22geometry%22%2F%3E%3C%2FmxCell%3E%3CmxCell%20id%3D%2214%22%20value%3D%22%22%20style%3D%22rounded%3D1%3BwhiteSpace%3Dwrap%3Bhtml%3D1%3Bshadow%3D1%3B%22%20vertex%3D%221%22%20parent%3D%225%22%3E%3CmxGeometry%20x%3D%22127.88097560975609%22%20y%3D%22228.86967741935484%22%20width%3D%22156.09756097560975%22%20height%3D%2223.709677419354836%22%20as%3D%22geometry%22%2F%3E%3C%2FmxCell%3E%3CmxCell%20id%3D%2215%22%20value%3D%22Voltar%22%20style%3D%22rounded%3D1%3BwhiteSpace%3Dwrap%3Bhtml%3D1%3BfillColor%3D%23B0B0B0%3Bcontainer%3D0%3B%22%20vertex%3D%221%22%20parent%3D%225%22%3E%3CmxGeometry%20x%3D%2273.99569583931134%22%20y%3D%22415.0030956423316%22%20width%3D%22131.76470588235293%22%20height%3D%2239.29824561403508%22%20as%3D%22geometry%22%2F%3E%3C%2FmxCell%3E%3C%2Froot%3E%3C%2FmxGraphModel%3E&lt;/span&gt;" style="rounded=1;whiteSpace=wrap;html=1;shadow=1;" vertex="1" parent="1">
          <mxGeometry x="365.0029268292683" y="339.2896774193548" width="156.09756097560975" height="23.709677419354836" as="geometry" />
        </mxCell>
        <mxCell id="z6BWA8BLWcZFzd1xvX2E-21" value="&lt;span style=&quot;color: rgba(0, 0, 0, 0); font-family: monospace; font-size: 0px; text-align: start; text-wrap: nowrap;&quot;&gt;%3CmxGraphModel%3E%3Croot%3E%3CmxCell%20id%3D%220%22%2F%3E%3CmxCell%20id%3D%221%22%20parent%3D%220%22%2F%3E%3CmxCell%20id%3D%222%22%20value%3D%22%22%20style%3D%22group%22%20vertex%3D%221%22%20connectable%3D%220%22%20parent%3D%221%22%3E%3CmxGeometry%20x%3D%22-450%22%20y%3D%22100%22%20width%3D%22320%22%20height%3D%22560%22%20as%3D%22geometry%22%2F%3E%3C%2FmxCell%3E%3CmxCell%20id%3D%223%22%20value%3D%22%22%20style%3D%22rounded%3D1%3BwhiteSpace%3Dwrap%3Bhtml%3D1%3BfillColor%3D%23f5f5f5%3BgradientColor%3D%23b3b3b3%3BstrokeColor%3D%23666666%3B%22%20vertex%3D%221%22%20parent%3D%222%22%3E%3CmxGeometry%20width%3D%22320%22%20height%3D%22560%22%20as%3D%22geometry%22%2F%3E%3C%2FmxCell%3E%3CmxCell%20id%3D%224%22%20value%3D%22Analisar%20melhor%20Pre%C3%A7o%20%3A%22%20style%3D%22text%3Bhtml%3D1%3Balign%3Dcenter%3BverticalAlign%3Dmiddle%3Bresizable%3D0%3Bpoints%3D%5B%5D%3Bautosize%3D1%3BstrokeColor%3Dnone%3BfillColor%3Dnone%3B%22%20vertex%3D%221%22%20parent%3D%222%22%3E%3CmxGeometry%20x%3D%22-0.002682926829267629%22%20y%3D%22275.721935483871%22%20width%3D%22150%22%20height%3D%2230%22%20as%3D%22geometry%22%2F%3E%3C%2FmxCell%3E%3CmxCell%20id%3D%225%22%20value%3D%22%22%20style%3D%22group%22%20vertex%3D%221%22%20connectable%3D%220%22%20parent%3D%222%22%3E%3CmxGeometry%20x%3D%2220.121951219512198%22%20y%3D%2250.001290322580644%22%20width%3D%22283.9785365853659%22%20height%3D%22454.30134125636664%22%20as%3D%22geometry%22%2F%3E%3C%2FmxCell%3E%3CmxCell%20id%3D%226%22%20value%3D%22%26lt%3Bfont%20style%3D%26quot%3Bfont-size%3A%2018px%3B%26quot%3B%26gt%3BDespache%26amp%3Bnbsp%3B%20de%20Tecido%26lt%3B%2Ffont%26gt%3B%22%20style%3D%22text%3Bhtml%3D1%3Balign%3Dcenter%3BverticalAlign%3Dmiddle%3Bresizable%3D0%3Bpoints%3D%5B%5D%3Bautosize%3D1%3BstrokeColor%3Dnone%3BfillColor%3Dnone%3B%22%20vertex%3D%221%22%20parent%3D%225%22%3E%3CmxGeometry%20x%3D%2244.881707317073165%22%20width%3D%22190%22%20height%3D%2240%22%20as%3D%22geometry%22%2F%3E%3C%2FmxCell%3E%3CmxCell%20id%3D%227%22%20value%3D%22Localidade%20%3A%22%20style%3D%22text%3Bhtml%3D1%3Balign%3Dcenter%3BverticalAlign%3Dmiddle%3Bresizable%3D0%3Bpoints%3D%5B%5D%3Bautosize%3D1%3BstrokeColor%3Dnone%3BfillColor%3Dnone%3B%22%20vertex%3D%221%22%20parent%3D%225%22%3E%3CmxGeometry%20y%3D%22120.96161290322578%22%20width%3D%2290%22%20height%3D%2230%22%20as%3D%22geometry%22%2F%3E%3C%2FmxCell%3E%3CmxCell%20id%3D%228%22%20value%3D%22Quantidade%20%3A%22%20style%3D%22text%3Bhtml%3D1%3Balign%3Dcenter%3BverticalAlign%3Dmiddle%3Bresizable%3D0%3Bpoints%3D%5B%5D%3Bautosize%3D1%3BstrokeColor%3Dnone%3BfillColor%3Dnone%3B%22%20vertex%3D%221%22%20parent%3D%225%22%3E%3CmxGeometry%20y%3D%22173.78709677419354%22%20width%3D%2290%22%20height%3D%2230%22%20as%3D%22geometry%22%2F%3E%3C%2FmxCell%3E%3CmxCell%20id%3D%229%22%20value%3D%22Tecido%20%3A%22%20style%3D%22text%3Bhtml%3D1%3Balign%3Dcenter%3BverticalAlign%3Dmiddle%3Bresizable%3D0%3Bpoints%3D%5B%5D%3Bautosize%3D1%3BstrokeColor%3Dnone%3BfillColor%3Dnone%3B%22%20vertex%3D%221%22%20parent%3D%225%22%3E%3CmxGeometry%20x%3D%2214.997317073170727%22%20y%3D%2275.00129032258063%22%20width%3D%2260%22%20height%3D%2230%22%20as%3D%22geometry%22%2F%3E%3C%2FmxCell%3E%3CmxCell%20id%3D%2210%22%20value%3D%22Fazer%20Compra%22%20style%3D%22rounded%3D1%3BwhiteSpace%3Dwrap%3Bhtml%3D1%3Bshadow%3D1%3BfillColor%3D%23eeeeee%3BstrokeColor%3D%2336393d%3Bsketch%3D1%3BcurveFitting%3D1%3Bjiggle%3D2%3B%22%20vertex%3D%221%22%20parent%3D%225%22%3E%3CmxGeometry%20x%3D%2286.4580487804878%22%20y%3D%22349.99870967741936%22%20width%3D%22106.83%22%20height%3D%2240%22%20as%3D%22geometry%22%2F%3E%3C%2FmxCell%3E%3CmxCell%20id%3D%2211%22%20value%3D%22%22%20style%3D%22rounded%3D1%3BwhiteSpace%3Dwrap%3Bhtml%3D1%3Bshadow%3D1%3B%22%20vertex%3D%221%22%20parent%3D%225%22%3E%3CmxGeometry%20x%3D%22127.8709756097561%22%20y%3D%2278.1483870967742%22%20width%3D%22156.09756097560975%22%20height%3D%2223.709677419354836%22%20as%3D%22geometry%22%2F%3E%3C%2FmxCell%3E%3CmxCell%20id%3D%2212%22%20value%3D%22%22%20style%3D%22rounded%3D1%3BwhiteSpace%3Dwrap%3Bhtml%3D1%3Bshadow%3D1%3B%22%20vertex%3D%221%22%20parent%3D%225%22%3E%3CmxGeometry%20x%3D%22127.8709756097561%22%20y%3D%22127.25677419354838%22%20width%3D%22156.09756097560975%22%20height%3D%2223.709677419354836%22%20as%3D%22geometry%22%2F%3E%3C%2FmxCell%3E%3CmxCell%20id%3D%2213%22%20value%3D%22%22%20style%3D%22rounded%3D1%3BwhiteSpace%3Dwrap%3Bhtml%3D1%3Bshadow%3D1%3B%22%20vertex%3D%221%22%20parent%3D%225%22%3E%3CmxGeometry%20x%3D%22127.88097560975609%22%20y%3D%22176.9341935483871%22%20width%3D%22156.09756097560975%22%20height%3D%2223.709677419354836%22%20as%3D%22geometry%22%2F%3E%3C%2FmxCell%3E%3CmxCell%20id%3D%2214%22%20value%3D%22%22%20style%3D%22rounded%3D1%3BwhiteSpace%3Dwrap%3Bhtml%3D1%3Bshadow%3D1%3B%22%20vertex%3D%221%22%20parent%3D%225%22%3E%3CmxGeometry%20x%3D%22127.88097560975609%22%20y%3D%22228.86967741935484%22%20width%3D%22156.09756097560975%22%20height%3D%2223.709677419354836%22%20as%3D%22geometry%22%2F%3E%3C%2FmxCell%3E%3CmxCell%20id%3D%2215%22%20value%3D%22Voltar%22%20style%3D%22rounded%3D1%3BwhiteSpace%3Dwrap%3Bhtml%3D1%3BfillColor%3D%23B0B0B0%3Bcontainer%3D0%3B%22%20vertex%3D%221%22%20parent%3D%225%22%3E%3CmxGeometry%20x%3D%2273.99569583931134%22%20y%3D%22415.0030956423316%22%20width%3D%22131.76470588235293%22%20height%3D%2239.29824561403508%22%20as%3D%22geometry%22%2F%3E%3C%2FmxCell%3E%3C%2Froot%3E%3C%2FmxGraphModel%3E&lt;/span&gt;" style="rounded=1;whiteSpace=wrap;html=1;shadow=1;" vertex="1" parent="1">
          <mxGeometry x="365.0029268292683" y="383.1496774193548" width="156.09756097560975" height="23.709677419354836" as="geometry" />
        </mxCell>
        <mxCell id="z6BWA8BLWcZFzd1xvX2E-22" value="Localidade :" style="text;html=1;align=center;verticalAlign=middle;resizable=0;points=[];autosize=1;strokeColor=none;fillColor=none;" vertex="1" parent="1">
          <mxGeometry x="-4.998048780487807" y="380.00290322580645" width="90" height="30" as="geometry" />
        </mxCell>
        <mxCell id="z6BWA8BLWcZFzd1xvX2E-24" value="Quantidade :" style="text;html=1;align=center;verticalAlign=middle;resizable=0;points=[];autosize=1;strokeColor=none;fillColor=none;" vertex="1" parent="1">
          <mxGeometry x="265.0119512195122" y="335.8583870967742" width="90" height="30" as="geometry" />
        </mxCell>
        <mxCell id="z6BWA8BLWcZFzd1xvX2E-26" value="Analisar Preço :" style="text;html=1;align=center;verticalAlign=middle;resizable=0;points=[];autosize=1;strokeColor=none;fillColor=none;" vertex="1" parent="1">
          <mxGeometry x="255.00731707317073" y="380.001935483871" width="110" height="30" as="geometry" />
        </mxCell>
        <mxCell id="z6BWA8BLWcZFzd1xvX2E-28" value="Fazer Compra" style="rounded=1;whiteSpace=wrap;html=1;shadow=1;fillColor=#B0B0B0;strokeColor=#36393d;" vertex="1" parent="1">
          <mxGeometry x="100" y="460" width="130" height="40" as="geometry" />
        </mxCell>
        <mxCell id="z6BWA8BLWcZFzd1xvX2E-29" value="Voltar" style="rounded=1;whiteSpace=wrap;html=1;fillColor=#B0B0B0;container=0;" vertex="1" parent="1">
          <mxGeometry x="320" y="460" width="130" height="40" as="geometry" />
        </mxCell>
        <mxCell id="z6BWA8BLWcZFzd1xvX2E-34" value="" style="edgeStyle=orthogonalEdgeStyle;rounded=0;orthogonalLoop=1;jettySize=auto;html=1;" edge="1" parent="1" source="z6BWA8BLWcZFzd1xvX2E-32" target="z6BWA8BLWcZFzd1xvX2E-33">
          <mxGeometry relative="1" as="geometry" />
        </mxCell>
        <mxCell id="z6BWA8BLWcZFzd1xvX2E-32" value="Início" style="ellipse;whiteSpace=wrap;html=1;" vertex="1" parent="1">
          <mxGeometry x="770" y="110" width="120" height="80" as="geometry" />
        </mxCell>
        <mxCell id="z6BWA8BLWcZFzd1xvX2E-36" value="" style="edgeStyle=orthogonalEdgeStyle;rounded=0;orthogonalLoop=1;jettySize=auto;html=1;" edge="1" parent="1" source="z6BWA8BLWcZFzd1xvX2E-33" target="z6BWA8BLWcZFzd1xvX2E-35">
          <mxGeometry relative="1" as="geometry" />
        </mxCell>
        <mxCell id="z6BWA8BLWcZFzd1xvX2E-33" value="Despache de Tecido" style="rounded=0;whiteSpace=wrap;html=1;" vertex="1" parent="1">
          <mxGeometry x="770" y="230" width="120" height="60" as="geometry" />
        </mxCell>
        <mxCell id="z6BWA8BLWcZFzd1xvX2E-38" value="" style="edgeStyle=orthogonalEdgeStyle;rounded=0;orthogonalLoop=1;jettySize=auto;html=1;" edge="1" parent="1" source="z6BWA8BLWcZFzd1xvX2E-35" target="z6BWA8BLWcZFzd1xvX2E-37">
          <mxGeometry relative="1" as="geometry" />
        </mxCell>
        <mxCell id="z6BWA8BLWcZFzd1xvX2E-35" value="Tecido?" style="rounded=0;whiteSpace=wrap;html=1;" vertex="1" parent="1">
          <mxGeometry x="950" y="230" width="120" height="60" as="geometry" />
        </mxCell>
        <mxCell id="z6BWA8BLWcZFzd1xvX2E-40" value="" style="edgeStyle=orthogonalEdgeStyle;rounded=0;orthogonalLoop=1;jettySize=auto;html=1;" edge="1" parent="1" source="z6BWA8BLWcZFzd1xvX2E-37" target="z6BWA8BLWcZFzd1xvX2E-39">
          <mxGeometry relative="1" as="geometry" />
        </mxCell>
        <mxCell id="z6BWA8BLWcZFzd1xvX2E-37" value="Quantidade?" style="rounded=0;whiteSpace=wrap;html=1;" vertex="1" parent="1">
          <mxGeometry x="950" y="335" width="120" height="60" as="geometry" />
        </mxCell>
        <mxCell id="z6BWA8BLWcZFzd1xvX2E-42" value="" style="edgeStyle=orthogonalEdgeStyle;rounded=0;orthogonalLoop=1;jettySize=auto;html=1;" edge="1" parent="1" source="z6BWA8BLWcZFzd1xvX2E-39" target="z6BWA8BLWcZFzd1xvX2E-41">
          <mxGeometry relative="1" as="geometry" />
        </mxCell>
        <mxCell id="z6BWA8BLWcZFzd1xvX2E-39" value="Localidade?" style="rounded=0;whiteSpace=wrap;html=1;" vertex="1" parent="1">
          <mxGeometry x="950" y="440" width="120" height="60" as="geometry" />
        </mxCell>
        <mxCell id="z6BWA8BLWcZFzd1xvX2E-44" value="" style="edgeStyle=orthogonalEdgeStyle;rounded=0;orthogonalLoop=1;jettySize=auto;html=1;" edge="1" parent="1" source="z6BWA8BLWcZFzd1xvX2E-41" target="z6BWA8BLWcZFzd1xvX2E-43">
          <mxGeometry relative="1" as="geometry" />
        </mxCell>
        <mxCell id="z6BWA8BLWcZFzd1xvX2E-41" value="Analisar Preço?" style="rounded=0;whiteSpace=wrap;html=1;" vertex="1" parent="1">
          <mxGeometry x="950" y="540" width="120" height="60" as="geometry" />
        </mxCell>
        <mxCell id="z6BWA8BLWcZFzd1xvX2E-46" value="" style="edgeStyle=orthogonalEdgeStyle;rounded=0;orthogonalLoop=1;jettySize=auto;html=1;" edge="1" parent="1" source="z6BWA8BLWcZFzd1xvX2E-43" target="z6BWA8BLWcZFzd1xvX2E-45">
          <mxGeometry relative="1" as="geometry" />
        </mxCell>
        <mxCell id="z6BWA8BLWcZFzd1xvX2E-47" value="SIM" style="edgeLabel;html=1;align=center;verticalAlign=middle;resizable=0;points=[];" vertex="1" connectable="0" parent="z6BWA8BLWcZFzd1xvX2E-46">
          <mxGeometry x="-0.08" y="-1" relative="1" as="geometry">
            <mxPoint as="offset" />
          </mxGeometry>
        </mxCell>
        <mxCell id="z6BWA8BLWcZFzd1xvX2E-43" value="O pedido está&lt;div&gt;Correto?&lt;/div&gt;" style="rhombus;whiteSpace=wrap;html=1;" vertex="1" parent="1">
          <mxGeometry x="960" y="640" width="100" height="100" as="geometry" />
        </mxCell>
        <mxCell id="z6BWA8BLWcZFzd1xvX2E-51" value="" style="edgeStyle=orthogonalEdgeStyle;rounded=0;orthogonalLoop=1;jettySize=auto;html=1;" edge="1" parent="1" source="z6BWA8BLWcZFzd1xvX2E-45" target="z6BWA8BLWcZFzd1xvX2E-50">
          <mxGeometry relative="1" as="geometry" />
        </mxCell>
        <mxCell id="z6BWA8BLWcZFzd1xvX2E-45" value="Fazer Compra" style="rounded=0;whiteSpace=wrap;html=1;" vertex="1" parent="1">
          <mxGeometry x="950" y="790" width="120" height="60" as="geometry" />
        </mxCell>
        <mxCell id="z6BWA8BLWcZFzd1xvX2E-48" value="" style="endArrow=classic;html=1;rounded=0;exitX=0;exitY=0.5;exitDx=0;exitDy=0;entryX=0.5;entryY=1;entryDx=0;entryDy=0;" edge="1" parent="1" source="z6BWA8BLWcZFzd1xvX2E-43" target="z6BWA8BLWcZFzd1xvX2E-33">
          <mxGeometry width="50" height="50" relative="1" as="geometry">
            <mxPoint x="380" y="630" as="sourcePoint" />
            <mxPoint x="430" y="580" as="targetPoint" />
            <Array as="points">
              <mxPoint x="830" y="690" />
            </Array>
          </mxGeometry>
        </mxCell>
        <mxCell id="z6BWA8BLWcZFzd1xvX2E-49" value="NÂO" style="edgeLabel;html=1;align=center;verticalAlign=middle;resizable=0;points=[];" vertex="1" connectable="0" parent="z6BWA8BLWcZFzd1xvX2E-48">
          <mxGeometry x="-0.766" y="2" relative="1" as="geometry">
            <mxPoint as="offset" />
          </mxGeometry>
        </mxCell>
        <mxCell id="z6BWA8BLWcZFzd1xvX2E-50" value="Voltar" style="ellipse;whiteSpace=wrap;html=1;" vertex="1" parent="1">
          <mxGeometry x="950" y="900" width="120" height="80" as="geometry" />
        </mxCell>
        <mxCell id="z6BWA8BLWcZFzd1xvX2E-52" value="" style="endArrow=classic;html=1;rounded=0;exitX=1;exitY=0.5;exitDx=0;exitDy=0;entryX=1;entryY=0.5;entryDx=0;entryDy=0;" edge="1" parent="1" source="z6BWA8BLWcZFzd1xvX2E-50" target="z6BWA8BLWcZFzd1xvX2E-32">
          <mxGeometry width="50" height="50" relative="1" as="geometry">
            <mxPoint x="380" y="730" as="sourcePoint" />
            <mxPoint x="1080" y="120" as="targetPoint" />
            <Array as="points">
              <mxPoint x="1160" y="940" />
              <mxPoint x="1160" y="150" />
            </Array>
          </mxGeometry>
        </mxCell>
      </root>
    </mxGraphModel>
  </diagram>
</mxfile>
